<?xml version="1.0" encoding="UTF-8" standalone="no"?>
<!DOCTYPE svg PUBLIC "-//W3C//DTD SVG 1.1//EN"
 "http://www.w3.org/Graphics/SVG/1.1/DTD/svg11.dtd">
<!-- Generated by graphviz version 2.38.0 (20140413.2041)
 -->
<!-- Title: g Pages: 1 -->
<svg width="849pt" height="281pt"
 viewBox="0.00 0.00 849.00 281.00" xmlns="http://www.w3.org/2000/svg" xmlns:xlink="http://www.w3.org/1999/xlink">
<g id="graph0" class="graph" transform="scale(1 1) rotate(0) translate(4 277)">
<title>g</title>
<polygon fill="white" stroke="none" points="-4,4 -4,-277 845,-277 845,4 -4,4"/>
<text text-anchor="middle" x="809.478" y="-6.8" font-family="Times,serif" font-size="14.00">cells.dot</text>
<!-- node9 -->
<g id="node1" class="node"><title>node9</title>
<polygon fill="black" stroke="none" points="11.5,-195 11.5,-215 173.5,-215 173.5,-195 11.5,-195"/>
<polygon fill="none" stroke="black" points="11.5,-195 11.5,-215 173.5,-215 173.5,-195 11.5,-195"/>
<text text-anchor="start" x="14.1602" y="-201.8" font-family="Times,serif" font-weight="bold" font-size="14.00" fill="white">(9) __primitive.value 2 i (0)</text>
<polygon fill="none" stroke="black" points="11.5,-175 11.5,-195 173.5,-195 173.5,-175 11.5,-175"/>
<text text-anchor="start" x="71.3086" y="-181.8" font-family="Times,serif" font-size="14.00">alt: </text>
<text text-anchor="start" x="92.6914" y="-181.8" font-family="Times,serif" font-size="14.00" fill="lightgray">0x0</text>
<polygon fill="none" stroke="black" points="11.5,-155 11.5,-175 173.5,-175 173.5,-155 11.5,-155"/>
<text text-anchor="start" x="65.4775" y="-160.8" font-family="Times,serif" font-size="14.00">alt_set: X</text>
<polygon fill="yellow" stroke="none" points="11.5,-135 11.5,-155 173.5,-155 173.5,-135 11.5,-135"/>
<polygon fill="none" stroke="black" points="11.5,-135 11.5,-155 173.5,-155 173.5,-135 11.5,-135"/>
<text text-anchor="start" x="76.7534" y="-140.8" font-family="Times,serif" font-size="14.00">val: 1</text>
</g>
<!-- node10 -->
<g id="node2" class="node"><title>node10</title>
<polygon fill="black" stroke="none" points="8.5,-89 8.5,-109 177.5,-109 177.5,-89 8.5,-89"/>
<polygon fill="none" stroke="black" points="8.5,-89 8.5,-109 177.5,-109 177.5,-89 8.5,-89"/>
<text text-anchor="start" x="11.1602" y="-95.8" font-family="Times,serif" font-weight="bold" font-size="14.00" fill="white">(10) __primitive.value 2 i (0)</text>
<polygon fill="none" stroke="black" points="8.5,-69 8.5,-89 177.5,-89 177.5,-69 8.5,-69"/>
<text text-anchor="start" x="71.8086" y="-75.8" font-family="Times,serif" font-size="14.00">alt: </text>
<text text-anchor="start" x="93.1914" y="-75.8" font-family="Times,serif" font-size="14.00" fill="lightgray">0x0</text>
<polygon fill="none" stroke="black" points="8.5,-49 8.5,-69 177.5,-69 177.5,-49 8.5,-49"/>
<text text-anchor="start" x="65.9775" y="-54.8" font-family="Times,serif" font-size="14.00">alt_set: X</text>
<polygon fill="yellow" stroke="none" points="8.5,-29 8.5,-49 177.5,-49 177.5,-29 8.5,-29"/>
<polygon fill="none" stroke="black" points="8.5,-29 8.5,-49 177.5,-49 177.5,-29 8.5,-29"/>
<text text-anchor="start" x="77.2534" y="-34.8" font-family="Times,serif" font-size="14.00">val: 2</text>
</g>
<!-- node11 -->
<g id="node3" class="node"><title>node11</title>
<polygon fill="black" stroke="none" points="236.5,-192 236.5,-212 391.5,-212 391.5,-192 236.5,-192"/>
<polygon fill="none" stroke="black" points="236.5,-192 236.5,-212 391.5,-212 391.5,-192 236.5,-192"/>
<text text-anchor="start" x="239.023" y="-198.8" font-family="Times,serif" font-weight="bold" font-size="14.00" fill="white">(11) __primitive.alt 2 0 (0)</text>
<polygon fill="none" stroke="black" points="236.5,-172 236.5,-192 391.5,-192 391.5,-172 236.5,-172"/>
<text text-anchor="start" x="292.809" y="-178.8" font-family="Times,serif" font-size="14.00">alt: </text>
<text text-anchor="start" x="314.191" y="-178.8" font-family="Times,serif" font-size="14.00" fill="lightgray">0x0</text>
<polygon fill="none" stroke="black" points="236.5,-152 236.5,-172 391.5,-172 391.5,-152 236.5,-152"/>
<text text-anchor="start" x="277.062" y="-157.8" font-family="Times,serif" font-size="14.00" fill="lightgray">0x10755f6e0</text>
<polygon fill="none" stroke="black" points="236.5,-132 236.5,-152 391.5,-152 391.5,-132 236.5,-132"/>
<text text-anchor="start" x="276.669" y="-137.8" font-family="Times,serif" font-size="14.00" fill="lightgray">0x10755f720</text>
</g>
<!-- node11&#45;&gt;node9 -->
<g id="edge1" class="edge"><title>node11:arg0&#45;&gt;node9:top</title>
<path fill="none" stroke="black" d="M235.5,-162C206.088,-162 206.954,-195.81 184.402,-203.47"/>
<polygon fill="black" stroke="black" points="183.848,-200.014 174.5,-205 184.917,-206.931 183.848,-200.014"/>
</g>
<!-- node11&#45;&gt;node10 -->
<g id="edge2" class="edge"><title>node11:arg1&#45;&gt;node10:top</title>
<path fill="none" stroke="black" d="M235.5,-142C207.609,-142 209.227,-108.784 188.483,-100.739"/>
<polygon fill="black" stroke="black" points="188.952,-97.268 178.5,-99 187.751,-104.164 188.952,-97.268"/>
</g>
<!-- node12 -->
<g id="node4" class="node"><title>node12</title>
<polygon fill="black" stroke="none" points="229.5,-86 229.5,-106 398.5,-106 398.5,-86 229.5,-86"/>
<polygon fill="none" stroke="black" points="229.5,-86 229.5,-106 398.5,-106 398.5,-86 229.5,-86"/>
<text text-anchor="start" x="232.16" y="-92.8" font-family="Times,serif" font-weight="bold" font-size="14.00" fill="white">(12) __primitive.value 2 i (0)</text>
<polygon fill="none" stroke="black" points="229.5,-66 229.5,-86 398.5,-86 398.5,-66 229.5,-66"/>
<text text-anchor="start" x="292.809" y="-72.8" font-family="Times,serif" font-size="14.00">alt: </text>
<text text-anchor="start" x="314.191" y="-72.8" font-family="Times,serif" font-size="14.00" fill="lightgray">0x0</text>
<polygon fill="none" stroke="black" points="229.5,-46 229.5,-66 398.5,-66 398.5,-46 229.5,-46"/>
<text text-anchor="start" x="286.978" y="-51.8" font-family="Times,serif" font-size="14.00">alt_set: X</text>
<polygon fill="yellow" stroke="none" points="229.5,-26 229.5,-46 398.5,-46 398.5,-26 229.5,-26"/>
<polygon fill="none" stroke="black" points="229.5,-26 229.5,-46 398.5,-46 398.5,-26 229.5,-26"/>
<text text-anchor="start" x="298.253" y="-31.8" font-family="Times,serif" font-size="14.00">val: 3</text>
</g>
<!-- node13 -->
<g id="node5" class="node"><title>node13</title>
<polygon fill="black" stroke="none" points="450,-189 450,-209 612,-209 612,-189 450,-189"/>
<polygon fill="none" stroke="black" points="450,-189 450,-209 612,-209 612,-189 450,-189"/>
<text text-anchor="start" x="452.657" y="-195.8" font-family="Times,serif" font-weight="bold" font-size="14.00" fill="white">(13) __primitive.add 2 0 (0)</text>
<polygon fill="none" stroke="black" points="450,-169 450,-189 612,-189 612,-169 450,-169"/>
<text text-anchor="start" x="509.809" y="-175.8" font-family="Times,serif" font-size="14.00">alt: </text>
<text text-anchor="start" x="531.191" y="-175.8" font-family="Times,serif" font-size="14.00" fill="lightgray">0x0</text>
<polygon fill="none" stroke="black" points="450,-149 450,-169 612,-169 612,-149 450,-149"/>
<text text-anchor="start" x="493.669" y="-154.8" font-family="Times,serif" font-size="14.00" fill="lightgray">0x10755f760</text>
<polygon fill="none" stroke="black" points="450,-129 450,-149 612,-149 612,-129 450,-129"/>
<text text-anchor="start" x="494.062" y="-134.8" font-family="Times,serif" font-size="14.00" fill="lightgray">0x10755f7a0</text>
</g>
<!-- node13&#45;&gt;node11 -->
<g id="edge3" class="edge"><title>node13:arg0&#45;&gt;node11:top</title>
<path fill="none" stroke="black" d="M449,-159C421.265,-159 423.015,-192.216 402.42,-200.261"/>
<polygon fill="black" stroke="black" points="401.745,-196.826 392.5,-202 402.954,-203.721 401.745,-196.826"/>
</g>
<!-- node13&#45;&gt;node12 -->
<g id="edge4" class="edge"><title>node13:arg1&#45;&gt;node12:top</title>
<path fill="none" stroke="black" d="M449,-139C423.956,-139 426.921,-107.243 409.755,-98.3119"/>
<polygon fill="black" stroke="black" points="410.025,-94.7849 399.5,-96 408.485,-101.614 410.025,-94.7849"/>
</g>
<!-- node14 -->
<g id="node6" class="node"><title>node14</title>
<polygon fill="black" stroke="none" points="664.5,-249 664.5,-269 833.5,-269 833.5,-249 664.5,-249"/>
<polygon fill="none" stroke="black" points="664.5,-249 664.5,-269 833.5,-269 833.5,-249 664.5,-249"/>
<text text-anchor="start" x="667.16" y="-255.8" font-family="Times,serif" font-weight="bold" font-size="14.00" fill="white">(14) __primitive.value 2 l (0)</text>
<polygon fill="none" stroke="black" points="664.5,-229 664.5,-249 833.5,-249 833.5,-229 664.5,-229"/>
<text text-anchor="start" x="727.809" y="-235.8" font-family="Times,serif" font-size="14.00">alt: </text>
<text text-anchor="start" x="749.191" y="-235.8" font-family="Times,serif" font-size="14.00" fill="lightgray">0x0</text>
<polygon fill="none" stroke="black" points="664.5,-209 664.5,-229 833.5,-229 833.5,-209 664.5,-209"/>
<text text-anchor="start" x="721.978" y="-214.8" font-family="Times,serif" font-size="14.00">alt_set: X</text>
<polygon fill="none" stroke="black" points="664.5,-189 664.5,-209 833.5,-209 833.5,-189 664.5,-189"/>
<text text-anchor="start" x="700.591" y="-195.8" font-family="Times,serif" font-size="14.00">ptr: </text>
<text text-anchor="start" x="723.533" y="-195.8" font-family="Times,serif" font-size="14.00" fill="lightgray">0x10755f7e0</text>
</g>
<!-- node14&#45;&gt;node13 -->
<g id="edge5" class="edge"><title>node14:ptr0&#45;&gt;node13:top</title>
<path fill="none" stroke="black" d="M663.5,-199C644.913,-199 637.871,-199 623.252,-199"/>
<polygon fill="black" stroke="black" points="623,-195.5 613,-199 623,-202.5 623,-195.5"/>
</g>
</g>
</svg>
