<?xml version="1.0" encoding="UTF-8" standalone="no"?>
<!DOCTYPE svg PUBLIC "-//W3C//DTD SVG 1.1//EN"
 "http://www.w3.org/Graphics/SVG/1.1/DTD/svg11.dtd">
<!-- Generated by graphviz version 2.38.0 (20140413.2041)
 -->
<!-- Title: g Pages: 1 -->
<svg width="1062pt" height="283pt"
 viewBox="0.00 0.00 1062.00 283.00" xmlns="http://www.w3.org/2000/svg" xmlns:xlink="http://www.w3.org/1999/xlink">
<g id="graph0" class="graph" transform="scale(1 1) rotate(0) translate(4 279)">
<title>g</title>
<polygon fill="white" stroke="none" points="-4,4 -4,-279 1058,-279 1058,4 -4,4"/>
<text text-anchor="middle" x="1008.87" y="-6.8" font-family="Times,serif" font-size="14.00">graph000.dot</text>
<!-- node10 -->
<g id="node1" class="node"><title>node10</title>
<polygon fill="black" stroke="none" points="8.5,-136 8.5,-156 177.5,-156 177.5,-136 8.5,-136"/>
<polygon fill="none" stroke="black" points="8.5,-136 8.5,-156 177.5,-156 177.5,-136 8.5,-136"/>
<text text-anchor="start" x="11.1602" y="-142.8" font-family="Times,serif" font-weight="bold" font-size="14.00" fill="white">(10) __primitive.value 2 i (0)</text>
<polygon fill="none" stroke="black" points="8.5,-116 8.5,-136 177.5,-136 177.5,-116 8.5,-116"/>
<text text-anchor="start" x="71.8086" y="-122.8" font-family="Times,serif" font-size="14.00">alt: </text>
<text text-anchor="start" x="93.1914" y="-122.8" font-family="Times,serif" font-size="14.00" fill="lightgray">0x0</text>
<polygon fill="none" stroke="black" points="8.5,-96 8.5,-116 177.5,-116 177.5,-96 8.5,-96"/>
<text text-anchor="start" x="65.9775" y="-101.8" font-family="Times,serif" font-size="14.00">alt_set: X</text>
<polygon fill="yellow" stroke="none" points="8.5,-76 8.5,-96 177.5,-96 177.5,-76 8.5,-76"/>
<polygon fill="none" stroke="black" points="8.5,-76 8.5,-96 177.5,-96 177.5,-76 8.5,-76"/>
<text text-anchor="start" x="77.2534" y="-81.8" font-family="Times,serif" font-size="14.00">val: 2</text>
</g>
<!-- node12 -->
<g id="node2" class="node"><title>node12</title>
<polygon fill="black" stroke="none" points="438.5,-86 438.5,-106 607.5,-106 607.5,-86 438.5,-86"/>
<polygon fill="none" stroke="black" points="438.5,-86 438.5,-106 607.5,-106 607.5,-86 438.5,-86"/>
<text text-anchor="start" x="441.16" y="-92.8" font-family="Times,serif" font-weight="bold" font-size="14.00" fill="white">(12) __primitive.value 2 i (0)</text>
<polygon fill="none" stroke="black" points="438.5,-66 438.5,-86 607.5,-86 607.5,-66 438.5,-66"/>
<text text-anchor="start" x="501.809" y="-72.8" font-family="Times,serif" font-size="14.00">alt: </text>
<text text-anchor="start" x="523.191" y="-72.8" font-family="Times,serif" font-size="14.00" fill="lightgray">0x0</text>
<polygon fill="none" stroke="black" points="438.5,-46 438.5,-66 607.5,-66 607.5,-46 438.5,-46"/>
<text text-anchor="start" x="495.978" y="-51.8" font-family="Times,serif" font-size="14.00">alt_set: X</text>
<polygon fill="yellow" stroke="none" points="438.5,-26 438.5,-46 607.5,-46 607.5,-26 438.5,-26"/>
<polygon fill="none" stroke="black" points="438.5,-26 438.5,-46 607.5,-46 607.5,-26 438.5,-26"/>
<text text-anchor="start" x="507.253" y="-31.8" font-family="Times,serif" font-size="14.00">val: 3</text>
</g>
<!-- node13 -->
<g id="node3" class="node"><title>node13</title>
<polygon fill="black" stroke="none" points="663,-191 663,-211 825,-211 825,-191 663,-191"/>
<polygon fill="none" stroke="black" points="663,-191 663,-211 825,-211 825,-191 663,-191"/>
<text text-anchor="start" x="665.657" y="-197.8" font-family="Times,serif" font-weight="bold" font-size="14.00" fill="white">(13) __primitive.add 2 0 (0)</text>
<polygon fill="none" stroke="black" points="663,-171 663,-191 825,-191 825,-171 663,-171"/>
<text text-anchor="start" x="722.809" y="-177.8" font-family="Times,serif" font-size="14.00">alt: </text>
<text text-anchor="start" x="744.191" y="-177.8" font-family="Times,serif" font-size="14.00" fill="lightgray">0x0</text>
<polygon fill="none" stroke="black" points="663,-151 663,-171 825,-171 825,-151 663,-151"/>
<text text-anchor="start" x="706.669" y="-156.8" font-family="Times,serif" font-size="14.00" fill="lightgray">0x10755f860</text>
<polygon fill="none" stroke="black" points="663,-131 663,-151 825,-151 825,-131 663,-131"/>
<text text-anchor="start" x="707.062" y="-136.8" font-family="Times,serif" font-size="14.00" fill="lightgray">0x10755f7a0</text>
</g>
<!-- node13&#45;&gt;node12 -->
<g id="edge4" class="edge"><title>node13:arg1&#45;&gt;node12:top</title>
<path fill="none" stroke="black" d="M662,-141C634.813,-141 638.031,-106.547 618.445,-97.9336"/>
<polygon fill="black" stroke="black" points="618.984,-94.4729 608.5,-96 617.648,-101.344 618.984,-94.4729"/>
</g>
<!-- node15 -->
<g id="node4" class="node"><title>node15</title>
<polygon fill="black" stroke="none" points="438.5,-196 438.5,-216 607.5,-216 607.5,-196 438.5,-196"/>
<polygon fill="none" stroke="black" points="438.5,-196 438.5,-216 607.5,-216 607.5,-196 438.5,-196"/>
<text text-anchor="start" x="441.16" y="-202.8" font-family="Times,serif" font-weight="bold" font-size="14.00" fill="white">(15) __primitive.value 2 i (0)</text>
<polygon fill="none" stroke="black" points="438.5,-176 438.5,-196 607.5,-196 607.5,-176 438.5,-176"/>
<text text-anchor="start" x="475.371" y="-182.8" font-family="Times,serif" font-size="14.00">alt: </text>
<text text-anchor="start" x="496.753" y="-182.8" font-family="Times,serif" font-size="14.00" fill="lightgray">0x10755f8a0</text>
<polygon fill="none" stroke="black" points="438.5,-156 438.5,-176 607.5,-176 607.5,-156 438.5,-156"/>
<text text-anchor="start" x="492.478" y="-161.8" font-family="Times,serif" font-size="14.00">alt_set: X0</text>
<polygon fill="yellow" stroke="none" points="438.5,-136 438.5,-156 607.5,-156 607.5,-136 438.5,-136"/>
<polygon fill="none" stroke="black" points="438.5,-136 438.5,-156 607.5,-156 607.5,-136 438.5,-136"/>
<text text-anchor="start" x="507.253" y="-141.8" font-family="Times,serif" font-size="14.00">val: 1</text>
<polygon fill="none" stroke="black" stroke-width="4" points="436,-134 436,-218 609,-218 609,-134 436,-134"/>
</g>
<!-- node13&#45;&gt;node15 -->
<g id="edge1" class="edge"><title>node13:arg0&#45;&gt;node15:top</title>
<path fill="none" stroke="black" d="M662,-161C634.813,-161 638.031,-195.453 618.445,-204.066"/>
<polygon fill="black" stroke="black" points="617.648,-200.656 608.5,-206 618.984,-207.527 617.648,-200.656"/>
</g>
<!-- node16 -->
<g id="node5" class="node"><title>node16</title>
<polygon fill="black" stroke="none" points="229.5,-176 229.5,-196 382.5,-196 382.5,-176 229.5,-176"/>
<polygon fill="none" stroke="black" points="229.5,-176 229.5,-196 382.5,-196 382.5,-176 229.5,-176"/>
<text text-anchor="start" x="232.319" y="-182.8" font-family="Times,serif" font-weight="bold" font-size="14.00" fill="white">(16) __primitive.id 1 0 (0)</text>
<polygon fill="none" stroke="black" points="229.5,-156 229.5,-176 382.5,-176 382.5,-156 229.5,-156"/>
<text text-anchor="start" x="284.809" y="-162.8" font-family="Times,serif" font-size="14.00">alt: </text>
<text text-anchor="start" x="306.191" y="-162.8" font-family="Times,serif" font-size="14.00" fill="lightgray">0x0</text>
<polygon fill="none" stroke="black" points="229.5,-136 229.5,-156 382.5,-156 382.5,-136 229.5,-136"/>
<text text-anchor="start" x="268.669" y="-141.8" font-family="Times,serif" font-size="14.00" fill="lightgray">0x10755f720</text>
<polygon fill="none" stroke="black" points="229.5,-116 229.5,-136 382.5,-136 382.5,-116 229.5,-116"/>
<text text-anchor="start" x="275.478" y="-121.8" font-family="Times,serif" font-size="14.00">alt_set: X1</text>
</g>
<!-- node15&#45;&gt;node16 -->
<g id="edge2" class="edge"><title>node15:alt&#45;&gt;node16:top</title>
<path fill="none" stroke="black" d="M437.5,-186C417.25,-186 409.814,-186 393.569,-186"/>
<polygon fill="black" stroke="black" points="393.5,-182.5 383.5,-186 393.5,-189.5 393.5,-182.5"/>
</g>
<!-- node16&#45;&gt;node10 -->
<g id="edge3" class="edge"><title>node16:arg0&#45;&gt;node10:top</title>
<path fill="none" stroke="black" d="M228.5,-146C210.097,-146 203.124,-146 188.651,-146"/>
<polygon fill="black" stroke="black" points="188.5,-142.5 178.5,-146 188.5,-149.5 188.5,-142.5"/>
</g>
<!-- node14 -->
<g id="node6" class="node"><title>node14</title>
<polygon fill="black" stroke="none" points="877.5,-251 877.5,-271 1046.5,-271 1046.5,-251 877.5,-251"/>
<polygon fill="none" stroke="black" points="877.5,-251 877.5,-271 1046.5,-271 1046.5,-251 877.5,-251"/>
<text text-anchor="start" x="880.16" y="-257.8" font-family="Times,serif" font-weight="bold" font-size="14.00" fill="white">(14) __primitive.value 2 l (0)</text>
<polygon fill="none" stroke="black" points="877.5,-231 877.5,-251 1046.5,-251 1046.5,-231 877.5,-231"/>
<text text-anchor="start" x="940.809" y="-237.8" font-family="Times,serif" font-size="14.00">alt: </text>
<text text-anchor="start" x="962.191" y="-237.8" font-family="Times,serif" font-size="14.00" fill="lightgray">0x0</text>
<polygon fill="none" stroke="black" points="877.5,-211 877.5,-231 1046.5,-231 1046.5,-211 877.5,-211"/>
<text text-anchor="start" x="934.978" y="-216.8" font-family="Times,serif" font-size="14.00">alt_set: X</text>
<polygon fill="none" stroke="black" points="877.5,-191 877.5,-211 1046.5,-211 1046.5,-191 877.5,-191"/>
<text text-anchor="start" x="913.591" y="-197.8" font-family="Times,serif" font-size="14.00">ptr: </text>
<text text-anchor="start" x="936.533" y="-197.8" font-family="Times,serif" font-size="14.00" fill="lightgray">0x10755f7e0</text>
</g>
<!-- node14&#45;&gt;node13 -->
<g id="edge5" class="edge"><title>node14:ptr0&#45;&gt;node13:top</title>
<path fill="none" stroke="black" d="M876.5,-201C857.913,-201 850.871,-201 836.252,-201"/>
<polygon fill="black" stroke="black" points="836,-197.5 826,-201 836,-204.5 836,-197.5"/>
</g>
</g>
</svg>
