<?xml version="1.0" encoding="UTF-8" standalone="no"?>
<!DOCTYPE svg PUBLIC "-//W3C//DTD SVG 1.1//EN"
 "http://www.w3.org/Graphics/SVG/1.1/DTD/svg11.dtd">
<!-- Generated by graphviz version 2.38.0 (20140413.2041)
 -->
<!-- Title: g Pages: 1 -->
<svg width="635pt" height="198pt"
 viewBox="0.00 0.00 635.00 198.00" xmlns="http://www.w3.org/2000/svg" xmlns:xlink="http://www.w3.org/1999/xlink">
<g id="graph0" class="graph" transform="scale(1 1) rotate(0) translate(4 194)">
<title>g</title>
<polygon fill="white" stroke="none" points="-4,4 -4,-194 631,-194 631,4 -4,4"/>
<text text-anchor="middle" x="586.153" y="-6.8" font-family="Times,serif" font-size="14.00">reduced.dot</text>
<!-- node13 -->
<g id="node1" class="node"><title>node13</title>
<polygon fill="black" stroke="none" points="229.5,-106 229.5,-126 398.5,-126 398.5,-106 229.5,-106"/>
<polygon fill="none" stroke="black" points="229.5,-106 229.5,-126 398.5,-126 398.5,-106 229.5,-106"/>
<text text-anchor="start" x="232.16" y="-112.8" font-family="Times,serif" font-weight="bold" font-size="14.00" fill="white">(13) __primitive.value 2 i (0)</text>
<polygon fill="none" stroke="black" points="229.5,-86 229.5,-106 398.5,-106 398.5,-86 229.5,-86"/>
<text text-anchor="start" x="265.978" y="-92.8" font-family="Times,serif" font-size="14.00">alt: </text>
<text text-anchor="start" x="287.36" y="-92.8" font-family="Times,serif" font-size="14.00" fill="lightgray">0x10755f920</text>
<polygon fill="none" stroke="black" points="229.5,-66 229.5,-86 398.5,-86 398.5,-66 229.5,-66"/>
<text text-anchor="start" x="283.478" y="-71.8" font-family="Times,serif" font-size="14.00">alt_set: X0</text>
<polygon fill="yellow" stroke="none" points="229.5,-46 229.5,-66 398.5,-66 398.5,-46 229.5,-46"/>
<polygon fill="none" stroke="black" points="229.5,-46 229.5,-66 398.5,-66 398.5,-46 229.5,-46"/>
<text text-anchor="start" x="298.253" y="-51.8" font-family="Times,serif" font-size="14.00">val: 4</text>
</g>
<!-- node18 -->
<g id="node2" class="node"><title>node18</title>
<polygon fill="black" stroke="none" points="8.5,-86 8.5,-106 177.5,-106 177.5,-86 8.5,-86"/>
<polygon fill="none" stroke="black" points="8.5,-86 8.5,-106 177.5,-106 177.5,-86 8.5,-86"/>
<text text-anchor="start" x="11.1602" y="-92.8" font-family="Times,serif" font-weight="bold" font-size="14.00" fill="white">(18) __primitive.value 2 i (0)</text>
<polygon fill="none" stroke="black" points="8.5,-66 8.5,-86 177.5,-86 177.5,-66 8.5,-66"/>
<text text-anchor="start" x="71.8086" y="-72.8" font-family="Times,serif" font-size="14.00">alt: </text>
<text text-anchor="start" x="93.1914" y="-72.8" font-family="Times,serif" font-size="14.00" fill="lightgray">0x0</text>
<polygon fill="none" stroke="black" points="8.5,-46 8.5,-66 177.5,-66 177.5,-46 8.5,-46"/>
<text text-anchor="start" x="62.4775" y="-51.8" font-family="Times,serif" font-size="14.00">alt_set: X1</text>
<polygon fill="yellow" stroke="none" points="8.5,-26 8.5,-46 177.5,-46 177.5,-26 8.5,-26"/>
<polygon fill="none" stroke="black" points="8.5,-26 8.5,-46 177.5,-46 177.5,-26 8.5,-26"/>
<text text-anchor="start" x="77.2534" y="-31.8" font-family="Times,serif" font-size="14.00">val: 5</text>
</g>
<!-- node13&#45;&gt;node18 -->
<g id="edge1" class="edge"><title>node13:alt&#45;&gt;node18:top</title>
<path fill="none" stroke="black" d="M228.5,-96C210.097,-96 203.124,-96 188.651,-96"/>
<polygon fill="black" stroke="black" points="188.5,-92.5001 178.5,-96 188.5,-99.5001 188.5,-92.5001"/>
</g>
<!-- node14 -->
<g id="node3" class="node"><title>node14</title>
<polygon fill="black" stroke="none" points="450.5,-166 450.5,-186 619.5,-186 619.5,-166 450.5,-166"/>
<polygon fill="none" stroke="black" points="450.5,-166 450.5,-186 619.5,-186 619.5,-166 450.5,-166"/>
<text text-anchor="start" x="453.16" y="-172.8" font-family="Times,serif" font-weight="bold" font-size="14.00" fill="white">(14) __primitive.value 2 l (0)</text>
<polygon fill="none" stroke="black" points="450.5,-146 450.5,-166 619.5,-166 619.5,-146 450.5,-146"/>
<text text-anchor="start" x="513.809" y="-152.8" font-family="Times,serif" font-size="14.00">alt: </text>
<text text-anchor="start" x="535.191" y="-152.8" font-family="Times,serif" font-size="14.00" fill="lightgray">0x0</text>
<polygon fill="none" stroke="black" points="450.5,-126 450.5,-146 619.5,-146 619.5,-126 450.5,-126"/>
<text text-anchor="start" x="507.978" y="-131.8" font-family="Times,serif" font-size="14.00">alt_set: X</text>
<polygon fill="none" stroke="black" points="450.5,-106 450.5,-126 619.5,-126 619.5,-106 450.5,-106"/>
<text text-anchor="start" x="486.591" y="-112.8" font-family="Times,serif" font-size="14.00">ptr: </text>
<text text-anchor="start" x="509.533" y="-112.8" font-family="Times,serif" font-size="14.00" fill="lightgray">0x10755f7e0</text>
</g>
<!-- node14&#45;&gt;node13 -->
<g id="edge2" class="edge"><title>node14:ptr0&#45;&gt;node13:top</title>
<path fill="none" stroke="black" d="M449.5,-116C431.097,-116 424.124,-116 409.651,-116"/>
<polygon fill="black" stroke="black" points="409.5,-112.5 399.5,-116 409.5,-119.5 409.5,-112.5"/>
</g>
</g>
</svg>
